<?xml version="1.0" encoding="UTF-8"?>
<svg width="128" height="128" viewBox="0 0 128 128" fill="none" xmlns="http://www.w3.org/2000/svg">
  <rect width="128" height="128" rx="25" fill="#4CAF50"/>
  <path d="M32 64C32 46.3269 46.3269 32 64 32C81.6731 32 96 46.3269 96 64C96 81.6731 81.6731 96 64 96C46.3269 96 32 81.6731 32 64Z" fill="white" fill-opacity="0.9"/>
  <path d="M64 40C51.85 40 42 49.85 42 62C42 74.15 51.85 84 64 84C76.15 84 86 74.15 86 62C86 49.85 76.15 40 64 40ZM64 76C55.16 76 48 68.84 48 60C48 51.16 55.16 44 64 44C72.84 44 80 51.16 80 60C80 68.84 72.84 76 64 76Z" fill="#4CAF50"/>
  <path d="M64 52C61.79 52 60 53.79 60 56C60 58.21 61.79 60 64 60C66.21 60 68 58.21 68 56C68 53.79 66.21 52 64 52Z" fill="#4CAF50"/>
</svg>
